<svg xmlns="http://www.w3.org/2000/svg" width="512" height="512" viewBox="0 0 512 512" style="" data-bbox="5 5.000359058380127 501.9999856938375 501.999267578125">
    <g transform="matrix(0.9804673194885254, 0, 0, 0.9804673194885254, 5, 5.000359058380127)" fill="#690047">
        <path d="m59.652344 365.496094-24.417969 30.351562 81.867187 81.871094 30.382813-24.84375c14.96875 8.277344 30.746094 14.78125 47.109375 19.425781l4.1875 39.699219h72.21875v-61h63.761719c6.214843 17.421875 22.707031 30 42.238281 30 24.8125 0 45-20.1875 45-45s-20.1875-45-45-45c-19.53125 0-36.023438 12.578125-42.238281 30h-63.761719v-30h-15c-74.441406 0-135-60.558594-135-135s60.558594-135 135-135h15v-30h63.761719c6.214843 17.421875 22.707031 30 42.238281 30 24.8125 0 45-20.1875 45-45s-20.1875-45-45-45c-19.53125 0-36.023438 12.578125-42.238281 30h-63.761719v-61h-73.578125l-3.898437 40.023438c-16.359376 4.714843-32.109376 11.292968-47.019532 19.628906l-30.351562-24.417969-81.898438 81.867187 24.871094 30.382813c-8.273438 14.96875-14.777344 30.746094-19.421875 47.109375l-39.703125 4.1875v115.796875l40.023438 3.898437c4.714843 16.363282 11.292968 32.109376 19.628906 47.019532zm0 0" transform="matrix(1, 0, 0, 1, 0, 0)" fill="#690047"></path>
        <path d="m467 211c-19.53125 0-36.023438 12.578125-42.238281 30h-198.761719v30h198.761719c6.214843 17.421875 22.707031 30 42.238281 30 24.8125 0 45-20.1875 45-45s-20.1875-45-45-45zm0 0" transform="matrix(1, 0, 0, 1, 0, 0)" fill="#690047"></path>
        <path d="m470.453125 91.128906c-26.367187-1.976562-48.453125 18.914063-48.453125 44.871094 0 1.867188.328125 3.644531.550781 5.453125l-49.097656 24.546875h-129.867187c-51.132813 0-92.585938 41.453125-92.585938 92.585938 0 48.277343 39.136719 87.414062 87.414062 87.414062h135.039063l49.097656 24.546875c-.222656 1.808594-.550781 3.585937-.550781 5.453125 0 25.957031 22.085938 46.847656 48.453125 44.871094 22.003906-1.652344 39.765625-19.414063 41.417969-41.417969 1.976562-26.367187-18.914063-48.453125-44.871094-48.453125-12.101562 0-23.054688 4.855469-31.148438 12.652344l-55.304687-27.652344h-139.546875c-33.136719 0-60-26.863281-60-60s26.863281-60 60-60h139.546875l55.304687-27.652344c8.09375 7.796875 19.046876 12.652344 31.148438 12.652344 25.957031 0 46.847656-22.085938 44.871094-48.453125-1.652344-22.003906-19.414063-39.765625-41.417969-41.417969zm0 0" transform="matrix(1, 0, 0, 1, 0, 0)" fill="#690047"></path>
    </g>
</svg>
